<?xml version="1.0" encoding="UTF-8"?><svg id="Layer_1" xmlns="http://www.w3.org/2000/svg" viewBox="0 0 359.97 426.06"><defs><style>.cls-1{fill:#fff;}</style></defs><path d="M63.22,242.16c-14-9.93-26.43-20.67-36.77-33.71C11.83,190.01,2.47,169.45,.2,145.79c-2.25-23.5,14.86-38.38,39.51-33.49,.38-1.5,.81-3.03,1.17-4.57,4.67-20.01,13.31-37.85,30.17-50.32,12.08-8.94,26.83-11.38,41.28-13.95,4.74-.84,10.62,.5,14.12-1.89,3.38-2.31,4.23-8.21,6.41-12.42,18.04-34.76,62.41-39.29,87.35-9,1.19,1.45,2.85,2.87,4.58,3.47,9.66,3.33,17.57,9.16,25.09,15.94,3.55,3.19,8.16,6.18,12.72,7.1,32.63,6.57,47.33,29.57,55.3,59.03,.51,1.9,.81,3.85,1.14,5.45,5.94,0,11.65-.74,17.1,.14,14.57,2.36,24.07,14.02,23.83,28.83-.29,18.43-6.03,35.36-15.17,51.17-11.32,19.6-26.36,35.92-44.49,49.43-.78,.58-1.49,1.25-2.29,1.92,1,2.66,2.18,5.07,2.8,7.61,1.32,5.44-.3,10.22-3.99,14.31-1.78,1.97-2.43,3.8-.46,6.09,4.81,5.58,3.15,10.86-.46,16.4-1.24,1.91-1.86,4.98-1.32,7.17,4.89,20.03,13.09,38.77,22.92,56.82,9.18,16.86,3.78,30.31-14.54,36.78-4.5,1.59-8.67,4.23-12.78,6.74-40.47,24.69-84.32,35.02-131.48,30.43-32.7-3.18-62.84-14.27-90.88-31.27-2.55-1.55-5.41-2.57-7.96-4.11-4.36-2.64-9.16-4.9-12.76-8.37-9.41-9.06-10.34-16.66-4.26-28.32,9.58-18.35,17.93-37.18,23.41-57.22,1.12-4.11,1.32-7.59-1.6-11.14-3.55-4.32-3.46-9.06-.69-13.98,.69-1.24,.79-3.81-.03-4.73-6.64-7.55-6.52-15.27-.71-23.69Zm215.49,146.83c7.56-3.12,13.68-6.14,20.12-8.19,13.78-4.38,17.98-13.89,10.97-26.41-9.96-17.8-18.41-36.27-23.1-56.16-1.82-7.74-6.23-11.83-13.14-14.8-62.68-26.95-125.13-23.86-187.53,.97-6.52,2.59-11.2,6.2-11.67,13.84-.15,2.43-1.06,4.9-2.03,7.18-7.22,16.97-14.36,33.99-21.94,50.8-2.49,5.52-3.04,10.4,.44,15.5,5.68,8.34,14,12.27,23.66,13.99-2.61-2.17-5.77-3.49-8.41-5.5-4.29-3.26-8.55-6.68-12.23-10.58-2.9-3.07-2.56-6.99,.87-9.69,4.02-3.17,8.19-6.29,12.69-8.66,27.73-14.62,57.29-23.39,88.47-26.35,46.34-4.4,91.06,1.74,133.32,22.03,6.09,2.93,11.65,7.06,17.2,10.99,3.78,2.68,4.17,6.46,2.17,10.67-2.4,5.04-6.4,7.86-11.58,9.5-6.52,2.06-12.67,4.82-18.28,10.88ZM123.6,59.12c-14.15,1.03-29.01,2.44-43.1,7.85-2.66,1.02-4.98,3.96-6.57,6.56-4.24,6.95-8.24,14.08-11.78,21.41-.95,1.96-.71,5.31,.36,7.29,16.33,30.43,30.32,61.9,42.72,94.1,1.9,4.92,3.84,9.83,5.83,14.9,2.96-.9,5.43-1.66,8.08-2.47-11.26-45.57-23.08-90.49-30.47-136.42,.69,.6,1.15,1.28,1.45,2.01,8.59,21.31,17.92,42.35,25.52,64.01,6.99,19.92,12.21,40.47,17.94,60.82,1.05,3.73,2.51,5.1,6.18,3.89,1.35-.45,2.74-.79,4.39-1.26-4.15-23.9-8.76-47.27-12.15-70.81-3.41-23.67-5.6-47.51-8.4-71.88Zm121.4,149.4c.53-1.03,.96-1.72,1.27-2.47,14.87-36.57,30.55-72.77,50.1-107.15,.74-1.3,.77-3.66,.1-5-3.5-6.99-7.05-13.98-11.19-20.6-1.75-2.8-4.62-5.72-7.61-6.78-14.02-4.96-28.65-6.95-42.69-7.74-7.5,47.67-14.94,94.9-22.37,142.09,7.83,2.04,7.94,2.06,9.83-5.62,10.06-40.86,23.69-80.46,42.06-118.36,.77-1.59,1.57-3.15,2.36-4.73,.61,.19,1.22,.38,1.84,.56-10.35,44.45-20.69,88.89-31.13,133.72,2.63,.74,4.97,1.39,7.44,2.08Zm-79.07-100.34c4.58,3.37,7.91,6.07,11.53,8.32,1.2,.75,3.67,1.08,4.62,.36,8.48-6.43,16.82-13.05,25.03-19.83,1.7-1.4,3.59-3.59,3.82-5.6,1.58-13.69,4.02-27.46,3.72-41.16-.41-18.65-14.53-33.27-31.14-34.96-17.67-1.8-34.18,9.69-39.25,27.35-3.11,10.82-2.44,21.86-.99,32.74,5.34,39.92,11.05,79.79,16.67,119.67,.21,1.52,1.02,2.95,1.98,5.63,.64-1.98,.93-2.44,.9-2.88-.08-1.33-.16-2.67-.45-3.96-2.88-12.52-2.56-25.04-.74-37.7,2.23-15.5,8.04-30.64,4.3-47.99Zm-93.66,151.93c2.13-1.75,3.99-3.66,6.19-5.03,26.44-16.51,55.27-26.19,86.15-29.83,16.6-1.96,33.24-2.96,49.7,1.05,4.05,.99,9.33,1.41,9.74,6.98,.4,5.46-4.59,7.12-8.51,8.48-9.89,3.44-19.98,6.32-30,9.39-2.42,.74-4.88,1.33-7.32,1.98,38.57,.47,75,8.61,109.82,25.54-1.85-3.54-3.94-6.69-6.77-8.88-12.14-9.35-24.48-18.43-36.78-27.58-4.36-3.24-8.79-6.39-13.19-9.58,21.52,3.01,40.05,12.72,59.34,25.05,0-3.21,.62-5.63-.11-7.54-2.81-7.28-6.77-13.65-14.58-16.81-4.77-1.93-9.23-4.62-13.93-6.75-26.62-12.05-54.73-19.35-83.76-18.48-34.59,1.04-67.05,11.68-97.23,28.99-5.84,3.35-8.94,8.13-11.47,13.83-1.76,3.97-1.04,7.05,2.7,9.18Zm116.87-22.43l-.53-1.49c-9.95,0-19.91-.09-29.86,.03-8.95,.11-17.37,1.98-25.11,6.94-5.31,3.4-11.11,6.02-16.74,8.92-12.58,6.47-25.22,12.81-37.72,19.42-2.67,1.41-7.15,2-5.87,6.51,.17,.61,5.43,.21,8.15-.45,4.19-1.02,8.25-2.59,12.32-4.06,28.62-10.35,57.25-20.7,85.83-31.16,3.3-1.21,6.36-3.09,9.53-4.65Zm20.94-138.38c-.29-.12-.58-.24-.88-.36-1.89,2.05-3.46,4.57-5.72,6.07-8.8,5.85-10.58,14.33-9.75,23.99,.24,2.82,.36,5.65,.56,8.48,1.4,19.43,3.94,38.86-.56,58.23-.23,.99-.03,2.08-.03,3.12,.42,.04,.85,.07,1.27,.11,5.03-33.21,10.07-66.42,15.1-99.63Zm89.78,3.53c-10.92,32.86-21.45,64.54-31.98,96.21,4.91-7.84,9.11-15.95,13.04-24.18,6.59-13.8,13.17-27.61,19.46-41.55,4.38-9.7,3.87-19.57-.52-30.48ZM88.19,199.56l.62-.26c-10.28-31.2-20.56-62.4-30.82-93.54-4.11,8.77-4.7,16.97-.54,27.43,5.28,13.29,11.08,26.38,17.06,39.37,4.21,9.16,9.09,18.01,13.67,27Zm-22.4,1.54c.88-.22,1.77-.43,2.65-.65-.13-1.61,.33-3.67-.49-4.75-8.54-11.22-15.29-23.36-20.21-36.6-.82-2.21-3.88-3.56-5.78-5.42-1.78-1.74-4.49-3.45-4.86-5.53-.76-4.26-.23-8.74-.23-13.34-4.14,4.14-8.41,8.42-12.65,12.66,6.38,3.33,7.84,5.1,13.61,13.58,9.17,13.45,18.63,26.71,27.96,40.05Zm258.38-67.38c-.52,.38-1.04,.76-1.56,1.14,3.28,4.59,4.8,9.54,1.87,14.51-1.25,2.13-4.28,3.15-5.78,5.21-3.62,4.95-6.77,10.23-10.19,15.33-5.46,8.14-11.07,16.18-16.39,24.41-.79,1.23-.37,3.24-.5,4.89,.72,.22,1.44,.44,2.15,.66,7.95-10.4,16.1-20.66,23.8-31.25,5.78-7.95,10.2-17.04,19.5-20.99-4.46-4.81-8.68-9.35-12.9-13.9ZM74.25,198.78c-.07,.14-.21,.28-.21,.42-.3,8.4,7.87,12.79,9.66,20.23,.06,.24,1.57,.47,2.12,.17,.54-.3,.97-1.26,1-1.94,.23-6.76-6.04-16.12-12.57-18.88Zm-32.2-7.04c8.79,9.04,17.78,18.3,26.11,26.87-1.61-9.14-16.97-25.16-26.11-26.87Zm230.94,25.61c1.56,1.32,2.96,2.43,4.43-.91,1.26-2.85,3.33-5.34,4.81-8.11,1.56-2.92,2.83-5.99,4.75-10.09-9.33,4.14-12.35,10.96-13.99,19.11Zm45.73-25.89c-10.73,2.54-24.62,17.02-26.94,27.4,3.94-4.53,7.85-9.47,12.24-13.94,4.52-4.6,9.5-8.74,14.71-13.46ZM29.69,127.59c-7.74-.71-11.61,1.67-13.78,7.93-2.16,6.22-.87,18.29,2.58,24.1-3.62-23.26-2.89-25.51,11.2-32.04Zm301.38,.35c18.36,5.48,12.41,18.75,11.17,30.57,2.51-7.09,4.58-14.17,2.74-21.7-1.67-6.83-6.34-10.04-13.91-8.87ZM76.2,223.45c.66-.26,1.31-.53,1.97-.79-2.28-4.73-4.56-9.46-6.84-14.19-.48,.22-.96,.44-1.44,.66,2.1,4.77,4.21,9.54,6.31,14.31Zm214.39-15.2c-.42-.21-.83-.42-1.25-.63-2.07,4-4.14,8-6.21,11.99,.5,.25,1,.51,1.5,.76,1.99-4.04,3.97-8.08,5.96-12.13Z"/><path class="cls-1" d="M278.71,389c5.6-6.06,11.76-8.83,18.28-10.88,5.18-1.64,9.19-4.45,11.58-9.5,2-4.21,1.61-7.99-2.17-10.67-5.55-3.93-11.11-8.06-17.2-10.99-42.26-20.29-86.98-26.43-133.32-22.03-31.18,2.96-60.74,11.73-88.47,26.35-4.51,2.38-8.68,5.5-12.69,8.66-3.42,2.7-3.77,6.62-.87,9.69,3.69,3.9,7.94,7.32,12.23,10.58,2.64,2.01,5.8,3.33,8.41,5.5-9.66-1.72-17.97-5.65-23.66-13.99-3.48-5.1-2.93-9.97-.44-15.5,7.58-16.81,14.72-33.83,21.94-50.8,.97-2.28,1.88-4.75,2.03-7.18,.47-7.64,5.15-11.25,11.67-13.84,62.4-24.83,124.85-27.92,187.53-.97,6.91,2.97,11.31,7.06,13.14,14.8,4.69,19.9,13.13,38.36,23.1,56.16,7.01,12.53,2.81,22.04-10.97,26.41-6.44,2.05-12.56,5.07-20.12,8.19Zm-77.34-116.44c-13.05-5.58-59.52,8.69-63,19.08,10.61,3.72,54.99-9.56,63-19.08Zm-13.14,17.28c11.73-.88,23.53-1.49,34.11-7.49-12.19-1.14-23.45,1.83-34.11,7.49Z"/><path class="cls-1" d="M123.6,59.12c2.8,24.37,4.99,48.22,8.4,71.88,3.39,23.54,8,46.91,12.15,70.81-1.65,.47-3.04,.81-4.39,1.26-3.67,1.21-5.13-.16-6.18-3.89-5.73-20.35-10.95-40.9-17.94-60.82-7.59-21.66-16.93-42.7-25.52-64.01-.3-.74-.76-1.41-1.45-2.01,7.39,45.93,19.21,90.85,30.47,136.42-2.65,.81-5.12,1.56-8.08,2.47-1.98-5.07-3.93-9.97-5.83-14.9-12.41-32.2-26.4-63.68-42.72-94.1-1.06-1.98-1.3-5.33-.36-7.29,3.54-7.33,7.54-14.46,11.78-21.41,1.58-2.6,3.91-5.53,6.57-6.56,14.09-5.41,28.95-6.82,43.1-7.85Z"/><path class="cls-1" d="M245,208.52c-2.47-.69-4.81-1.35-7.44-2.08,10.44-44.83,20.78-89.27,31.13-133.72-.61-.19-1.22-.38-1.84-.56-.79,1.58-1.59,3.14-2.36,4.73-18.38,37.91-32,77.5-42.06,118.36-1.89,7.68-2,7.66-9.83,5.62,7.43-47.19,14.86-94.42,22.37-142.09,14.04,.79,28.67,2.78,42.69,7.74,3,1.06,5.86,3.98,7.61,6.78,4.14,6.61,7.69,13.61,11.19,20.6,.67,1.35,.64,3.7-.1,5-19.56,34.39-35.23,70.58-50.1,107.15-.3,.75-.73,1.44-1.27,2.47Z"/><path class="cls-1" d="M165.93,108.18c3.75,17.35-2.06,32.48-4.3,47.99-1.82,12.66-2.14,25.18,.74,37.7,.3,1.29,.37,2.63,.45,3.96,.03,.44-.26,.9-.9,2.88-.96-2.68-1.76-4.11-1.98-5.63-5.63-39.88-11.33-79.75-16.67-119.67-1.45-10.87-2.12-21.92,.99-32.74,5.07-17.66,21.58-29.14,39.25-27.35,16.61,1.69,30.73,16.31,31.14,34.96,.3,13.69-2.14,27.46-3.72,41.16-.23,2.01-2.12,4.2-3.82,5.6-8.21,6.78-16.55,13.4-25.03,19.83-.95,.72-3.42,.39-4.62-.36-3.61-2.26-6.95-4.96-11.53-8.32Zm.87-44.26c.51,13,2.34,25.47,7.99,37.03,1.03,2.11,3.58,4.86,5.39,4.83,1.91-.03,4.63-2.69,5.49-4.81,2.66-6.6,5.16-13.37,6.73-20.3,3.89-17.08,2.67-33.77-6.08-49.33-3.53-6.27-7.37-6.23-11.05-.11-6.08,10.12-8.07,21.34-8.48,32.69Z"/><path class="cls-1" d="M72.26,260.11c-3.75-2.13-4.46-5.21-2.7-9.18,2.53-5.7,5.63-10.48,11.47-13.83,30.18-17.32,62.65-27.96,97.23-28.99,29.03-.87,57.14,6.43,83.76,18.48,4.7,2.13,9.16,4.82,13.93,6.75,7.81,3.16,11.78,9.52,14.58,16.81,.73,1.9,.11,4.33,.11,7.54-19.29-12.32-37.82-22.04-59.34-25.05,4.4,3.19,8.83,6.34,13.19,9.58,12.3,9.15,24.64,18.23,36.78,27.58,2.83,2.18,4.92,5.33,6.77,8.88-34.82-16.93-71.25-25.07-109.82-25.54,2.44-.66,4.9-1.24,7.32-1.98,10.02-3.07,20.11-5.94,30-9.39,3.92-1.36,8.9-3.02,8.51-8.48-.41-5.56-5.69-5.99-9.74-6.98-16.46-4.01-33.1-3-49.7-1.05-30.89,3.64-59.72,13.32-86.15,29.83-2.2,1.37-4.06,3.28-6.19,5.03Z"/><path class="cls-1" d="M189.14,237.68c-3.17,1.57-6.23,3.44-9.53,4.65-28.58,10.46-57.21,20.81-85.83,31.16-4.07,1.47-8.13,3.04-12.32,4.06-2.72,.66-7.98,1.05-8.15,.45-1.28-4.51,3.2-5.1,5.87-6.51,12.5-6.61,25.15-12.95,37.72-19.42,5.62-2.89,11.43-5.52,16.74-8.92,7.74-4.96,16.16-6.83,25.11-6.94,9.95-.12,19.9-.03,29.86-.03l.53,1.49Z"/><path class="cls-1" d="M210.08,99.3c-5.03,33.21-10.07,66.42-15.1,99.63-.42-.04-.85-.07-1.27-.11,0-1.04-.2-2.13,.03-3.12,4.51-19.37,1.96-38.81,.56-58.23-.2-2.82-.32-5.66-.56-8.48-.83-9.66,.95-18.14,9.75-23.99,2.25-1.5,3.83-4.02,5.72-6.07,.29,.12,.58,.24,.88,.36Z"/><path class="cls-1" d="M299.86,102.82c4.39,10.91,4.9,20.78,.52,30.48-6.29,13.94-12.87,27.75-19.46,41.55-3.93,8.23-8.13,16.34-13.04,24.18,10.53-31.68,21.06-63.35,31.98-96.21Z"/><path class="cls-1" d="M88.19,199.56c-4.58-8.99-9.46-17.84-13.67-27-5.98-12.99-11.78-26.09-17.06-39.37-4.16-10.47-3.57-18.66,.54-27.43,10.26,31.14,20.54,62.34,30.82,93.54l-.62,.26Z"/><path class="cls-1" d="M65.79,201.1c-9.34-13.34-18.79-26.6-27.96-40.05-5.78-8.48-7.23-10.25-13.61-13.58,4.24-4.24,8.51-8.52,12.65-12.66,0,4.6-.53,9.09,.23,13.34,.37,2.07,3.08,3.78,4.86,5.53,1.91,1.87,4.96,3.21,5.78,5.42,4.92,13.24,11.67,25.38,20.21,36.6,.82,1.08,.36,3.14,.49,4.75-.88,.22-1.77,.43-2.65,.65Z"/><path class="cls-1" d="M324.17,133.72c4.22,4.55,8.44,9.09,12.9,13.9-9.31,3.96-13.72,13.05-19.5,20.99-7.7,10.58-15.85,20.85-23.8,31.25-.72-.22-1.44-.44-2.15-.66,.14-1.65-.29-3.66,.5-4.89,5.32-8.23,10.93-16.27,16.39-24.41,3.42-5.09,6.57-10.38,10.19-15.33,1.5-2.05,4.53-3.08,5.78-5.21,2.93-4.97,1.41-9.93-1.87-14.51,.52-.38,1.04-.76,1.56-1.14Z"/><path class="cls-1" d="M74.25,198.78c6.52,2.75,12.8,12.11,12.57,18.88-.02,.69-.46,1.65-1,1.94-.54,.3-2.06,.08-2.12-.17-1.79-7.44-9.97-11.83-9.66-20.23,0-.14,.14-.28,.21-.42Z"/><path class="cls-1" d="M42.05,191.73c9.14,1.71,24.5,17.74,26.11,26.87-8.33-8.57-17.33-17.83-26.11-26.87Z"/><path class="cls-1" d="M272.99,217.34c1.64-8.15,4.66-14.97,13.99-19.11-1.91,4.11-3.19,7.17-4.75,10.09-1.48,2.77-3.55,5.26-4.81,8.11-1.48,3.34-2.87,2.23-4.43,.91Z"/><path class="cls-1" d="M318.71,191.45c-5.2,4.72-10.19,8.86-14.71,13.46-4.39,4.47-8.3,9.42-12.24,13.94,2.32-10.39,16.22-24.86,26.94-27.4Z"/><path class="cls-1" d="M29.69,127.59c-14.09,6.53-14.82,8.78-11.2,32.04-3.45-5.82-4.74-17.88-2.58-24.1,2.17-6.26,6.04-8.65,13.78-7.93Z"/><path class="cls-1" d="M331.07,127.93c7.57-1.17,12.24,2.04,13.91,8.87,1.85,7.53-.22,14.62-2.74,21.7,1.24-11.82,7.18-25.09-11.17-30.57Z"/><path class="cls-1" d="M76.2,223.45c-2.1-4.77-4.21-9.54-6.31-14.31,.48-.22,.96-.44,1.44-.66,2.28,4.73,4.56,9.46,6.84,14.19-.66,.26-1.31,.53-1.97,.79Z"/><path class="cls-1" d="M290.59,208.26c-1.99,4.04-3.97,8.08-5.96,12.13-.5-.25-1-.51-1.5-.76,2.07-4,4.14-8,6.21-11.99,.42,.21,.83,.42,1.25,.63Z"/><path d="M201.37,272.55c-8.02,9.52-52.39,22.79-63,19.08,3.48-10.39,49.96-24.65,63-19.08Z"/><path d="M188.24,289.83c10.66-5.66,21.92-8.64,34.11-7.49-10.58,6-22.37,6.62-34.11,7.49Z"/><path d="M166.79,63.92c.4-11.35,2.39-22.57,8.48-32.69,3.68-6.12,7.53-6.16,11.05,.11,8.74,15.56,9.96,32.25,6.08,49.33-1.58,6.93-4.07,13.7-6.73,20.3-.86,2.12-3.58,4.78-5.49,4.81-1.81,.03-4.36-2.72-5.39-4.83-5.65-11.56-7.48-24.03-7.99-37.03Zm12.69,35.26c.68,.01,1.36,.03,2.04,.04,.75-2.75,1.83-5.45,2.21-8.25,2.38-17.93,2.09-35.9-.05-53.82-.21-1.74-1.96-3.31-3-4.95-.89,1.61-2.37,3.14-2.58,4.83-2.38,19.08-2.89,38.2-.23,57.31,.23,1.66,1.06,3.23,1.61,4.85Z"/><path class="cls-1" d="M179.49,99.18c-.55-1.61-1.38-3.19-1.61-4.85-2.66-19.11-2.15-38.22,.23-57.31,.21-1.69,1.69-3.23,2.58-4.83,1.04,1.65,2.79,3.21,3,4.95,2.13,17.93,2.42,35.89,.05,53.82-.37,2.8-1.45,5.5-2.21,8.25-.68-.01-1.36-.03-2.04-.04Z"/></svg>